<?xml version="1.0" standalone="no"?>
<!DOCTYPE svg PUBLIC "-//W3C//DTD SVG 20010904//EN"
 "http://www.w3.org/TR/2001/REC-SVG-20010904/DTD/svg10.dtd">
<svg version="1.0" xmlns="http://www.w3.org/2000/svg"
 width="300.000000pt" height="190.000000pt" viewBox="0 0 300.000000 190.000000"
 preserveAspectRatio="xMidYMid meet">
<metadata>
Created by potrace 1.10, written by Peter Selinger 2001-2011
</metadata>
<g transform="translate(0.000000,190.000000) scale(0.100000,-0.100000)"
fill="#000000" stroke="none">
<path d="M1333 1602 c-63 -6 -103 -90 -89 -186 6 -39 15 -57 59 -119 17 -24
17 -28 4 -41 -13 -14 -17 -13 -31 9 -9 13 -16 28 -16 33 0 4 -17 24 -37 44
-26 25 -51 38 -80 43 -39 6 -46 4 -74 -25 -30 -29 -31 -34 -26 -83 9 -69 40
-107 126 -156 10 -6 10 -13 3 -27 -38 -69 -63 -138 -66 -178 -3 -57 22 -137
55 -173 52 -55 167 -80 227 -49 53 27 113 29 191 6 125 -38 211 -14 276 79 27
39 30 50 30 119 0 60 -6 88 -24 127 -13 28 -23 53 -23 58 1 4 -2 7 -8 7 -5 0
-7 7 -4 15 4 8 10 15 16 15 18 0 79 53 94 82 19 36 34 118 23 118 -5 0 -9 6
-9 14 0 38 -77 58 -135 36 -26 -10 -26 -10 -24 37 3 94 0 112 -29 142 -37 39
-72 47 -114 27 -47 -23 -78 -73 -84 -137 -10 -97 -10 -99 -49 -97 -19 1 -35 4
-36 7 -1 3 -3 36 -5 74 -6 115 -63 187 -141 179z m46 -37 c39 -20 71 -89 71
-152 0 -63 -35 -113 -79 -113 -91 0 -140 193 -66 258 31 26 37 27 74 7z m364
-36 c43 -59 27 -184 -30 -229 -90 -71 -167 70 -105 195 33 68 97 84 135 34z
m-553 -195 c57 -48 79 -133 44 -168 -33 -33 -107 -4 -144 56 -22 37 -27 107
-8 126 21 21 74 14 108 -14z m722 9 c45 -41 6 -153 -65 -187 -45 -21 -53 -20
-77 4 -54 54 24 198 109 200 8 0 23 -7 33 -17z m-315 -54 c74 -36 179 -159
235 -277 26 -54 30 -71 26 -127 -3 -53 -9 -71 -34 -102 -58 -73 -147 -93 -239
-53 -59 25 -121 25 -187 0 -103 -39 -182 -19 -235 58 -67 100 -22 239 131 409
97 107 205 140 303 92z"/>
<path d="M1320 1178 c-24 -40 -25 -71 -4 -92 27 -27 74 13 74 63 0 27 7 26 31
-1 10 -13 18 -18 19 -11 0 6 -12 25 -26 42 -35 42 -68 41 -94 -1z m46 -44 c-3
-8 -10 -12 -16 -9 -7 4 -6 14 2 28 12 24 24 8 14 -19z"/>
<path d="M1586 1180 c-27 -33 -33 -50 -17 -50 5 0 13 9 16 20 9 28 25 25 25
-5 0 -32 43 -77 65 -69 45 18 16 126 -36 132 -19 2 -33 -5 -53 -28z m61 -17
c-4 -3 -2 -12 4 -20 9 -10 8 -13 -5 -13 -9 0 -16 6 -16 13 0 14 9 27 18 27 3
0 2 -3 -1 -7z"/>
<path d="M1392 1108 l-12 -32 22 22 c15 14 19 25 12 32 -6 6 -14 -1 -22 -22z"/>
<path d="M1464 1131 c-32 -14 -82 -77 -93 -118 -25 -89 -4 -139 61 -150 35 -5
36 -4 31 18 -4 13 -15 30 -25 37 -10 7 -18 20 -18 28 0 8 -4 14 -10 14 -5 0
-10 14 -10 31 0 24 4 30 18 27 12 -2 18 -14 19 -36 2 -45 10 -62 28 -62 27 0
30 31 5 50 -31 23 -18 40 30 40 48 0 61 -17 31 -42 -14 -11 -21 -24 -17 -34 9
-22 40 -13 44 14 4 27 22 29 22 3 0 -11 -8 -26 -18 -33 -10 -7 -21 -24 -25
-37 -5 -22 -4 -23 31 -18 45 8 72 38 72 81 0 115 -98 219 -176 187z m76 -42
c0 -5 4 -8 9 -4 5 3 12 1 15 -4 4 -5 -7 -12 -24 -16 -17 -4 -28 -10 -25 -15
12 -19 -18 -21 -35 -2 -10 11 -25 22 -32 25 -10 4 -10 8 2 16 20 14 90 14 90
0z m-70 -54 c0 -8 -6 -15 -14 -15 -17 0 -28 14 -19 24 12 12 33 6 33 -9z m90
0 c0 -8 -7 -15 -15 -15 -8 0 -15 7 -15 15 0 8 7 15 15 15 8 0 15 -7 15 -15z
m39 -63 c-1 -26 -4 -37 -6 -24 -3 13 -11 26 -19 29 -17 6 -18 25 -2 41 19 19
28 3 27 -46z"/>
<path d="M1586 1131 c-5 -8 0 -21 14 -35 21 -20 22 -20 12 -1 -5 11 -11 27
-14 35 -3 11 -6 11 -12 1z"/>
<path d="M1480 991 c0 -6 4 -12 9 -15 13 -8 42 4 35 15 -7 12 -44 12 -44 0z"/>
<path d="M1474 896 c-6 -16 8 -36 26 -36 18 0 32 20 26 36 -6 16 -8 16 -17 4
-8 -13 -10 -13 -18 0 -9 12 -11 12 -17 -4z"/>
<path d="M1413 844 c24 -26 148 -27 173 -2 17 16 16 17 -21 7 -39 -11 -110 -8
-150 7 -19 7 -19 6 -2 -12z"/>
<path d="M1480 795 c0 -8 9 -15 20 -15 11 0 20 7 20 15 0 8 -9 15 -20 15 -11
0 -20 -7 -20 -15z"/>
<path d="M978 593 c-25 -6 -31 -38 -15 -70 8 -15 18 -47 22 -71 5 -34 12 -43
33 -49 19 -4 30 -1 44 17 10 12 18 30 18 40 0 9 5 32 11 50 14 39 26 25 30
-35 3 -43 23 -75 48 -75 8 0 29 12 45 28 17 15 28 23 24 18 -4 -4 2 -17 12
-28 14 -16 26 -19 52 -14 18 3 39 2 47 -3 21 -14 61 9 67 38 9 42 12 47 13 23
3 -69 105 -91 164 -36 32 29 35 29 58 3 10 -12 35 -27 56 -34 34 -12 42 -11
77 8 21 12 41 28 43 35 8 19 23 14 45 -13 25 -32 77 -46 123 -34 40 11 59 40
52 78 -22 110 -38 130 -104 131 -34 0 -46 -5 -66 -30 -14 -16 -28 -30 -30 -30
-2 0 -18 14 -35 30 -27 25 -40 30 -81 30 -43 0 -53 -4 -76 -31 l-26 -32 -29
28 c-19 18 -43 29 -73 32 -37 4 -48 1 -71 -20 -16 -15 -25 -31 -21 -39 7 -15
-15 12 -30 36 -15 23 -129 25 -153 2 -23 -20 -41 -21 -48 -1 -8 20 -58 19 -74
0 -12 -14 -15 -13 -35 5 -20 19 -72 25 -117 13z m112 -39 c0 -8 -9 -14 -20
-14 -18 0 -20 -7 -20 -60 0 -53 -2 -60 -20 -60 -18 0 -20 7 -20 60 0 53 -2 60
-20 60 -11 0 -20 7 -20 14 0 11 15 16 53 18 61 3 67 2 67 -18z m300 -54 c0
-73 -2 -80 -20 -80 -11 0 -20 3 -20 8 0 4 -12 25 -25 47 l-26 40 3 -47 c3 -43
1 -48 -18 -48 -19 0 -20 6 -20 75 1 71 2 75 24 75 16 0 27 -10 39 -35 21 -44
30 -45 25 -1 -3 27 0 35 15 39 10 3 19 5 21 6 1 0 2 -35 2 -79z m394 59 c20
-15 26 -29 26 -58 0 -57 -22 -81 -75 -81 -53 0 -75 24 -75 81 0 42 35 79 75
79 12 0 34 -9 49 -21z m219 2 c7 -7 6 -15 -2 -25 -10 -12 -16 -13 -32 -3 -27
17 -54 -2 -54 -38 0 -33 24 -52 51 -40 18 7 18 8 2 12 -35 9 -20 33 20 33 37
0 37 0 37 -40 l0 -40 -55 0 c-61 0 -72 5 -89 37 -18 35 -13 72 15 100 21 21
32 24 61 20 20 -4 41 -11 46 -16z m-813 -66 c0 -68 -2 -75 -20 -75 -18 0 -20
7 -20 75 0 68 2 75 20 75 18 0 20 -7 20 -75z m390 48 c43 -54 3 -123 -71 -123
l-39 0 0 75 0 75 44 0 c37 0 48 -5 66 -27z"/>
<path d="M1700 519 c-9 -16 -8 -26 5 -45 8 -13 22 -24 30 -24 8 0 22 11 30 24
21 32 5 66 -30 66 -14 0 -29 -8 -35 -21z"/>
<path d="M1503 498 c3 -40 7 -44 36 -39 16 2 23 39 11 61 -6 11 -19 20 -30 20
-17 0 -19 -6 -17 -42z"/>
</g>
</svg>
