<?xml version="1.0" standalone="no"?>
<!DOCTYPE svg PUBLIC "-//W3C//DTD SVG 20010904//EN"
 "http://www.w3.org/TR/2001/REC-SVG-20010904/DTD/svg10.dtd">
<svg version="1.0" xmlns="http://www.w3.org/2000/svg"
 width="300.000000pt" height="206.000000pt" viewBox="0 0 300.000000 206.000000"
 preserveAspectRatio="xMidYMid meet">
<metadata>
Created by potrace 1.10, written by Peter Selinger 2001-2011
</metadata>
<g transform="translate(0.000000,206.000000) scale(0.100000,-0.100000)"
fill="#000000" stroke="none">
<path d="M1400 1849 c0 -4 -17 -9 -37 -12 -71 -9 -108 -19 -111 -28 -2 -5 -10
-9 -18 -9 -8 0 -17 -6 -20 -14 -3 -7 -22 -18 -42 -24 -62 -19 -210 -44 -221
-38 -14 9 -40 -4 -51 -24 -11 -21 25 -103 60 -135 20 -18 29 -75 11 -75 -11 0
-31 -111 -31 -174 0 -63 21 -186 31 -186 5 0 9 -11 9 -26 0 -33 64 -127 128
-186 l51 -48 183 -1 c461 -2 481 -1 498 32 6 10 17 19 25 19 34 0 167 242 149
272 -3 4 -1 8 4 8 12 0 13 10 17 112 2 65 0 85 -9 82 -9 -3 -11 4 -8 26 2 18
0 30 -7 30 -6 0 -11 15 -11 34 0 41 -17 81 -50 121 -62 73 -132 143 -157 156
-16 8 -34 20 -41 27 -7 6 -20 12 -28 12 -8 0 -13 4 -10 9 6 10 -78 31 -126 32
-10 0 -18 3 -18 7 0 4 -38 7 -85 7 -47 0 -85 -3 -85 -6z m248 -55 c82 -27 195
-101 226 -149 9 -13 32 -40 51 -59 31 -32 37 -47 55 -137 11 -55 20 -120 20
-144 0 -116 -57 -255 -142 -348 l-53 -58 -312 0 c-359 0 -333 -7 -413 100
-123 163 -140 337 -55 544 5 12 2 17 -8 17 -18 0 -77 47 -77 61 0 5 7 9 16 9
8 0 22 16 30 35 15 37 17 38 131 54 44 5 84 17 101 30 16 11 62 31 103 45 104
36 220 36 327 0z m-687 -94 c15 0 10 -26 -7 -40 -12 -11 -18 -10 -31 3 -19 19
-10 52 13 43 9 -3 20 -6 25 -6z"/>
<path d="M1253 1692 c-1 -22 0 -24 9 -9 12 23 30 10 63 -47 46 -81 52 -206 9
-206 -8 0 -17 -7 -20 -15 -4 -8 -18 -15 -33 -14 -24 0 -24 1 -6 10 15 7 12 8
-14 4 -19 -3 -32 -2 -28 1 4 4 -2 13 -12 20 -28 20 -31 57 -10 152 11 48 18
94 16 102 -1 8 -13 -35 -26 -97 -25 -119 -23 -151 10 -182 47 -43 133 -30 158
25 25 56 2 165 -49 227 -45 53 -65 62 -67 29z"/>
<path d="M1164 1630 c-12 -49 -22 -69 -31 -66 -7 3 -13 0 -13 -5 0 -11 -29 -8
-62 6 -10 4 -18 3 -18 -3 0 -5 25 -18 55 -29 l55 -21 9 37 c23 91 33 142 28
147 -2 3 -13 -27 -23 -66z"/>
<path d="M1879 1500 c-25 -33 -94 -80 -146 -98 -24 -8 -50 -7 -110 4 -229 42
-213 42 -235 4 -29 -51 -96 -70 -160 -45 -12 5 -1 -33 44 -152 89 -235 93
-251 74 -272 -9 -10 -13 -21 -10 -24 9 -9 33 23 34 44 0 8 -20 77 -45 152 -25
76 -45 152 -46 170 0 25 -2 28 -8 13 -7 -17 -8 -18 -14 -3 -4 10 0 20 11 26
14 9 14 11 2 12 -8 1 4 5 27 9 23 5 65 25 93 44 34 23 60 34 74 31 11 -3 70
-12 129 -20 122 -18 149 -14 221 35 49 34 102 87 94 96 -4 3 -17 -9 -29 -26z"/>
<path d="M1914 1397 c-22 -22 -126 -67 -157 -67 -22 0 -22 -3 7 -48 13 -20 29
-67 36 -105 7 -37 15 -69 19 -72 4 -2 -1 40 -10 93 -22 118 -23 132 -6 132 26
0 116 49 127 69 14 27 10 26 -16 -2z"/>
<path d="M1194 1281 c3 -18 6 -42 6 -52 0 -9 7 -24 14 -32 16 -15 43 -60 83
-137 19 -36 23 -55 19 -95 l-5 -50 14 44 14 44 -71 151 c-39 83 -73 153 -76
156 -3 3 -2 -10 2 -29z"/>
<path d="M1545 1158 c-49 -6 -96 -15 -102 -20 -15 -12 -17 -181 -3 -213 6 -13
9 20 9 91 l1 112 33 5 c17 3 58 9 90 13 31 3 60 10 63 15 3 5 4 8 2 8 -2 -1
-43 -6 -93 -11z"/>
<path d="M1228 1095 c4 -38 7 -89 7 -112 0 -22 3 -39 8 -36 11 6 8 69 -8 148
l-14 70 7 -70z"/>
<path d="M1613 1133 c-24 -5 -32 -36 -13 -48 15 -9 12 -56 -5 -105 -18 -51
-13 -62 10 -27 12 19 16 44 14 93 -2 55 1 69 16 80 19 14 18 15 -22 7z"/>
<path d="M1697 1054 c5 -43 2 -56 -18 -83 -12 -17 -20 -33 -17 -36 3 -3 19 16
37 43 l31 49 -20 39 -19 39 6 -51z"/>
<path d="M1845 1063 c-1 -16 -4 -39 -8 -53 -4 -14 2 -6 14 18 11 23 17 47 14
52 -11 18 -20 10 -20 -17z"/>
<path d="M801 777 c-13 -6 -30 -21 -38 -33 -12 -18 -11 -24 9 -49 14 -18 25
-50 29 -88 9 -73 41 -114 83 -103 32 8 45 33 53 99 11 98 43 101 43 3 0 -52 4
-66 23 -84 28 -26 45 -27 75 -6 20 14 24 14 44 0 29 -21 47 -20 70 1 19 17 21
17 50 0 37 -21 56 -22 80 0 18 16 21 16 47 0 36 -21 112 -22 151 -2 15 8 38
27 50 42 l22 28 17 -22 c32 -38 83 -63 133 -63 41 0 52 5 89 40 l43 40 30 -29
c42 -39 68 -51 111 -51 45 0 85 20 119 60 34 42 33 76 -7 146 -25 46 -41 62
-70 73 -50 19 -110 1 -152 -45 l-31 -34 -34 35 c-64 66 -148 67 -211 4 l-37
-37 -29 30 c-55 58 -139 75 -187 37 -24 -19 -29 -20 -44 -7 -30 26 -50 28 -76
7 l-26 -20 -29 20 c-36 26 -42 26 -75 0 l-26 -20 -27 20 c-24 20 -28 20 -49 6
-29 -19 -53 -19 -78 0 -24 18 -112 20 -145 2z m152 -39 c8 -23 -5 -38 -32 -38
l-26 0 0 -82 c0 -78 -1 -83 -22 -86 -29 -4 -38 29 -29 109 l6 59 -29 0 c-31 0
-46 21 -28 39 16 16 154 15 160 -1z m115 -96 c2 -86 0 -103 -13 -109 -29 -11
-38 14 -37 106 0 50 1 96 1 102 1 6 11 9 24 7 21 -3 22 -8 25 -106z m150 48
c20 -32 40 -59 45 -60 4 0 6 26 5 58 -3 55 -2 57 22 57 25 0 25 -1 28 -94 4
-143 -22 -159 -92 -54 l-45 66 -3 -64 c-3 -56 -5 -64 -23 -64 -18 0 -20 8 -23
94 -3 108 0 121 28 121 14 0 32 -18 58 -60z m314 21 c32 -36 36 -76 13 -121
-20 -40 -43 -50 -109 -50 l-56 0 0 98 c0 54 3 102 8 106 4 4 31 6 61 4 46 -4
59 -10 83 -37z m273 8 c30 -26 35 -37 35 -74 0 -51 -26 -89 -74 -105 -44 -14
-77 -5 -110 29 -36 38 -43 87 -16 129 38 60 109 70 165 21z m277 13 c6 -6 8
-18 4 -27 -5 -13 -14 -15 -49 -10 -34 5 -48 3 -60 -10 -44 -43 3 -120 60 -99
39 13 41 34 4 34 -35 0 -48 15 -31 35 16 19 94 20 109 1 28 -34 -26 -107 -88
-121 -35 -7 -82 14 -105 47 -34 48 -14 126 39 157 23 13 102 8 117 -7z"/>
<path d="M1430 639 l0 -61 28 6 c71 18 66 116 -6 116 -20 0 -22 -5 -22 -61z"/>
<path d="M1692 688 c-24 -31 -23 -57 2 -83 29 -29 43 -31 74 -9 27 19 29 64 4
87 -22 20 -65 22 -80 5z"/>
</g>
</svg>
