<?xml version="1.0" standalone="no"?>
<!DOCTYPE svg PUBLIC "-//W3C//DTD SVG 20010904//EN"
 "http://www.w3.org/TR/2001/REC-SVG-20010904/DTD/svg10.dtd">
<svg version="1.0" xmlns="http://www.w3.org/2000/svg"
 width="298.000000pt" height="193.000000pt" viewBox="0 0 298.000000 193.000000"
 preserveAspectRatio="xMidYMid meet">
<metadata>
Created by potrace 1.10, written by Peter Selinger 2001-2011
</metadata>
<g transform="translate(0.000000,193.000000) scale(0.100000,-0.100000)"
fill="#000000" stroke="none">
<path d="M1605 1773 c-38 -7 -82 -16 -98 -20 -15 -3 -30 -9 -33 -14 -3 -5 -15
-9 -28 -9 -12 0 -26 -4 -31 -8 -6 -5 -26 -15 -45 -22 -19 -8 -60 -31 -90 -51
-48 -33 -68 -40 -165 -54 -136 -20 -205 -35 -227 -48 -12 -8 -24 -7 -43 1 -45
21 -92 15 -111 -13 -25 -38 -11 -72 50 -122 37 -31 88 8 107 81 10 40 15 46
38 46 14 0 89 9 166 21 126 19 146 25 204 60 152 92 305 133 491 133 150 0
241 -18 371 -74 148 -63 314 -199 396 -327 21 -32 44 -58 51 -59 6 -1 16 -2
21 -2 14 -3 41 -79 41 -115 0 -17 9 -66 20 -107 34 -132 43 -261 26 -376 -32
-213 -114 -374 -282 -552 l-69 -73 -495 -2 c-272 -1 -531 0 -575 1 l-79 4 -81
81 c-178 179 -269 380 -282 622 -8 160 19 298 91 458 16 35 16 38 -1 43 -60
19 -98 43 -128 78 -22 26 -35 35 -35 25 0 -24 37 -67 82 -96 37 -23 40 -27 35
-59 -3 -19 -13 -49 -21 -66 -9 -17 -16 -44 -16 -60 0 -15 -4 -28 -10 -28 -5 0
-10 -20 -10 -45 0 -25 -4 -45 -9 -45 -13 0 -14 -297 -1 -305 5 -3 10 -21 10
-39 0 -19 7 -50 15 -70 8 -20 13 -36 11 -36 -3 0 6 -27 19 -59 13 -33 20 -62
17 -65 -3 -3 0 -6 6 -6 6 0 21 -22 34 -50 13 -27 26 -50 30 -50 5 0 8 -5 8
-11 0 -29 182 -223 226 -239 16 -7 232 -11 584 -11 481 -1 561 1 586 14 45 24
149 132 210 218 58 83 114 195 114 229 0 11 4 20 8 20 4 0 16 37 25 82 25 119
23 315 -4 438 -11 52 -24 118 -29 146 -10 63 -31 104 -67 135 -16 13 -43 46
-62 72 -40 58 -168 183 -236 231 -61 43 -190 106 -216 106 -10 0 -19 4 -19 9
0 9 -10 12 -135 35 -100 19 -268 18 -360 -1z m-768 -243 c20 0 9 -48 -16 -74
-25 -24 -55 -14 -71 24 -17 41 2 64 43 56 16 -3 36 -6 44 -6z"/>
<path d="M1307 1518 c-10 -40 -17 -87 -17 -105 0 -17 -4 -33 -8 -35 -12 -5
-52 -191 -52 -245 0 -100 81 -175 190 -176 92 -1 167 66 177 157 7 60 -22 198
-58 273 -28 59 -102 144 -144 165 -11 6 6 -13 37 -41 90 -82 148 -222 148
-359 0 -72 -28 -136 -56 -125 -10 3 -12 0 -9 -10 11 -27 -88 -44 -152 -26 -44
12 -92 56 -85 77 2 7 -2 11 -10 10 -27 -6 -18 168 14 254 6 15 14 53 18 85 5
32 14 80 20 106 10 42 14 47 33 42 21 -6 22 -6 3 9 -11 9 -23 16 -26 16 -4 0
-14 -33 -23 -72z"/>
<path d="M1241 1524 c-5 -22 -24 -96 -42 -167 -25 -100 -34 -125 -44 -117 -9
8 -14 8 -17 0 -2 -7 -28 -2 -74 14 -75 27 -105 33 -88 17 10 -11 196 -82 201
-77 6 6 83 360 79 364 -3 2 -9 -13 -15 -34z"/>
<path d="M2516 1178 c-24 -32 -30 -44 -15 -31 22 20 65 83 57 83 -2 0 -21 -24
-42 -52z"/>
<path d="M2430 1094 c-14 -14 -65 -45 -115 -70 -49 -24 -83 -44 -75 -44 24 0
153 69 196 106 21 18 35 33 29 33 -5 0 -21 -11 -35 -25z"/>
<path d="M1636 1044 c-4 -14 -28 -47 -54 -73 -37 -37 -60 -51 -101 -61 -60
-14 -115 -9 -162 14 -38 19 -43 39 46 -199 89 -238 131 -352 168 -457 l31 -88
-27 -28 c-30 -31 -34 -47 -14 -58 6 -4 9 -4 5 1 -4 4 -2 17 3 28 9 15 13 17
19 7 6 -9 11 -1 18 24 9 33 6 49 -30 144 -45 120 -63 173 -73 217 -3 17 -13
46 -22 65 -20 47 -28 66 -51 130 -11 30 -27 74 -36 98 -19 51 -20 55 -4 46 7
-5 9 -2 6 8 -5 13 6 16 61 20 76 6 159 43 192 88 10 14 23 30 29 37 5 7 10 17
10 22 0 13 78 7 225 -19 66 -12 147 -25 180 -30 33 -5 70 -11 82 -14 13 -3 25
-1 28 5 4 5 -3 9 -15 9 -22 0 -460 77 -491 86 -12 3 -19 -3 -23 -22z"/>
<path d="M2495 918 c-11 -6 -49 -22 -85 -34 -36 -13 -55 -23 -44 -23 26 -1
123 37 144 56 17 16 12 16 -15 1z"/>
<path d="M2250 855 c0 -3 23 -39 50 -80 50 -73 64 -119 83 -260 4 -29 4 -28 5
5 1 19 -7 87 -18 150 -32 189 -27 177 -66 178 -19 1 -39 4 -44 7 -6 4 -10 3
-10 0z"/>
<path d="M1253 793 c3 -17 9 -54 13 -84 6 -44 22 -76 85 -174 43 -66 82 -124
86 -130 5 -5 23 -40 40 -76 l31 -66 -19 -69 c-24 -88 -23 -128 2 -49 38 120
43 99 -95 384 -69 144 -126 265 -126 270 0 6 -5 13 -12 17 -8 5 -9 -2 -5 -23z"/>
<path d="M1845 524 c-60 -8 -116 -16 -122 -19 -10 -3 -12 -53 -11 -212 l3
-208 2 206 3 206 78 6 c108 8 222 24 229 31 9 9 -58 5 -182 -10z"/>
<path d="M1303 485 c3 -16 13 -90 23 -162 10 -73 21 -133 26 -133 4 0 5 12 3
28 -3 15 -14 85 -26 157 -11 71 -23 132 -26 135 -3 3 -3 -8 0 -25z"/>
<path d="M1993 493 c-29 -6 -29 -12 3 -74 l25 -50 -21 -102 c-18 -89 -24 -105
-50 -125 -17 -13 -30 -30 -30 -39 0 -9 15 1 39 26 35 36 40 50 57 136 17 92
17 98 0 145 -16 45 -16 51 -2 66 17 17 20 25 9 23 -5 -1 -18 -4 -30 -6z"/>
<path d="M2161 435 c0 -5 6 -37 14 -70 22 -90 19 -108 -27 -174 -23 -33 -39
-63 -36 -66 5 -5 102 138 113 168 4 8 -9 46 -29 83 -19 38 -35 65 -35 59z"/>
<path d="M2454 414 c21 -20 20 -36 -5 -107 -11 -32 -19 -60 -16 -63 2 -2 16
28 31 68 24 66 25 73 11 95 -9 13 -20 23 -26 23 -6 0 -3 -7 5 -16z"/>
<path d="M2247 243 c-11 -10 -8 -63 3 -63 6 0 10 16 10 35 0 36 -2 40 -13 28z"/>
</g>
</svg>
